<?xml version="1.0" standalone="no"?><!DOCTYPE svg PUBLIC "-//W3C//DTD SVG 1.1//EN" "http://www.w3.org/Graphics/SVG/1.1/DTD/svg11.dtd"><svg t="1664285945055" class="icon" viewBox="0 0 1024 1024" version="1.1" xmlns="http://www.w3.org/2000/svg" p-id="9553" xmlns:xlink="http://www.w3.org/1999/xlink" width="48" height="48"><path d="M924.903226 801.782991c-21.020528-18.017595-45.043988-36.035191-69.067449-51.049853-30.029326-18.017595-57.055718-36.035191-90.087976-48.046921 39.038123-123.120235 39.038123-258.252199 0-381.372434 30.029326-12.01173 60.058651-30.029326 87.085044-48.046921 24.02346-15.014663 48.046921-33.032258 69.067448-51.049853l3.002933-3.002933c-15.014663-27.026393-33.032258-48.046921-54.052786-69.067448h-3.002933c-21.020528 18.017595-45.043988 36.035191-72.070381 51.049853-21.020528 12.01173-39.038123 24.02346-60.058651 33.032258-18.017595-42.041056-42.041056-81.079179-72.070381-117.114369l-27.026393-36.035191L564.55132 0H504.492669c-15.014663 0-27.026393 0-39.038124 3.002933h-6.005865l-72.070381 81.079178L360.351906 120.117302c-30.029326 36.035191-54.052786 75.073314-72.070381 117.11437-24.02346-9.008798-45.043988-21.020528-66.064516-33.032259C198.193548 189.184751 171.167155 171.167155 150.146628 150.146628c-21.020528 21.020528-42.041056 45.043988-57.055719 69.067448 21.020528 21.020528 45.043988 39.038123 72.070381 54.052786 27.026393 18.017595 57.055718 33.032258 90.087977 48.046921-39.038123 123.120235-39.038123 255.249267 0 378.369501-30.029326 12.01173-60.058651 30.029326-90.087977 48.046921-24.02346 15.014663-48.046921 33.032258-72.070381 54.052786 15.014663 24.02346 36.035191 48.046921 57.055719 69.067449 24.02346-21.020528 48.046921-39.038123 75.073313-54.052786 21.020528-12.01173 42.041056-24.02346 63.061584-33.032258 21.020528 42.041056 45.043988 81.079179 75.073314 120.117302 6.005865 9.008798 12.01173 15.014663 18.017595 24.02346l81.079179 93.090909h6.005865c15.014663 0 30.029326 3.002933 45.043988 3.002933s30.029326 0 45.043989-3.002933h6.005865l81.079179-93.090909c6.005865-9.008798 12.01173-15.014663 18.017595-24.02346 30.029326-36.035191 54.052786-78.076246 75.073314-117.11437 21.020528 9.008798 42.041056 21.020528 63.061583 33.032259 24.02346 15.014663 48.046921 33.032258 72.070381 51.049853H870.85044c21.020528-21.020528 39.038123-42.041056 54.052786-69.067449z m-243.237537-132.129032c-42.041056-12.01173-84.082111-18.017595-126.123167-21.020528v-273.266862c42.041056-3.002933 87.085044-12.01173 129.1261-24.02346 30.029326 102.099707 30.029326 216.211144-3.002933 318.31085zM555.542522 282.27566V129.1261l12.01173 15.014662c33.032258 36.035191 60.058651 78.076246 81.079179 123.120235-30.029326 9.008798-60.058651 12.01173-93.090909 15.014663z m-102.099707-138.134898l12.01173-15.014662v153.14956c-33.032258-3.002933-63.061584-9.008798-96.093841-15.014663 21.020528-45.043988 51.049853-84.082111 84.082111-123.120235z m-117.114369 207.202347c42.041056 12.01173 84.082111 18.017595 129.126099 21.020527v273.266863c-42.041056 3.002933-87.085044 9.008798-126.123167 21.020527-33.032258-102.099707-33.032258-210.205279-3.002932-315.307917z m129.126099 387.378299v150.146627l-18.017595-21.020528c-30.029326-36.035191-57.055718-75.073314-75.073314-114.111437 30.029326-9.008798 60.058651-12.01173 93.090909-15.014662z m108.105572 129.126099l-18.017595 21.020528v-150.146627c30.029326 3.002933 63.061584 9.008798 93.090909 15.014662-21.020528 39.038123-45.043988 78.076246-75.073314 114.111437z" fill="#A3CCFA" p-id="9554"></path><path d="M510.498534 90.087977c231.225806 0 420.410557 189.184751 420.410557 420.410557s-189.184751 420.410557-420.410557 420.410557S90.087977 741.72434 90.087977 510.498534 279.272727 90.087977 510.498534 90.087977m0-90.087977C228.222874 0 0 228.222874 0 510.498534s228.222874 510.498534 510.498534 510.498533 510.498534-228.222874 510.498533-510.498533S792.774194 0 510.498534 0z" fill="#5490D6" p-id="9555"></path></svg>